# xmcd CD database file
#
# Track frame offsets:
#	150
#	17708
#	37086
#	57311
#	79816
#	105523
#	133670
#
# Disc length: 2485 seconds
#
# Revision: 0
# Processed by: cddbd v1.4PL0 Copyright (c) Steve Scherf et al.
# Submitted via: CDex 1.50
#
DISCID=5709b307
DTITLE=Jarre - Oxygene 7-13
DYEAR=1997
DGENRE=New Age
TTITLE0=7
TTITLE1=8
TTITLE2=9
TTITLE3=10
TTITLE4=11
TTITLE5=12
TTITLE6=13
EXTD=YEAR: 1997
EXTT0=
EXTT1=
EXTT2=
EXTT3=
EXTT4=
EXTT5=
EXTT6=
PLAYORDER=
